<svg width="210" height="85" viewBox="0 0 210 85" fill="none" xmlns="http://www.w3.org/2000/svg">
<g filter="url(#filter0_d_0_5)">
<path d="M4.44 1.1H17.52V75.5H4.44V1.1ZM26.5969 18.98H37.0369L38.2369 24.86C39.4369 22.7 41.1569 21.06 43.3969 19.94C45.7169 18.74 48.4369 18.14 51.5569 18.14C55.7969 18.14 59.0769 19.14 61.3969 21.14C63.7169 23.14 64.8769 26.22 64.8769 30.38V75.5H52.1569V34.7C52.1569 32.46 51.5969 30.86 50.4769 29.9C49.4369 28.94 47.8769 28.46 45.7969 28.46C43.9569 28.46 42.5169 28.9 41.4769 29.78C40.5169 30.58 39.7969 31.74 39.3169 33.26V75.5H26.5969V18.98ZM91.9406 76.1C86.6606 76.1 82.6606 75.46 79.9406 74.18C77.3006 72.9 75.5006 71.18 74.5406 69.02C73.5806 66.86 73.1006 64.5 73.1006 61.94V32.54C73.1006 29.9 73.5806 27.54 74.5406 25.46C75.5006 23.3 77.3406 21.58 80.0606 20.3C82.8606 19.02 86.9406 18.38 92.3006 18.38C97.1006 18.38 100.901 19.02 103.701 20.3C106.501 21.5 108.461 23.14 109.581 25.22C110.781 27.3 111.381 29.66 111.381 32.3V43.58L98.6606 44.42V34.7C98.6606 33.02 98.1406 31.54 97.1006 30.26C96.1406 28.9 94.5006 28.22 92.1806 28.22C89.9406 28.22 88.3006 28.86 87.2606 30.14C86.3006 31.42 85.8206 32.94 85.8206 34.7V59.54C85.8206 61.22 86.3006 62.66 87.2606 63.86C88.2206 65.06 89.7406 65.66 91.8206 65.66C94.3006 65.66 96.0606 65.06 97.1006 63.86C98.1406 62.58 98.6606 61.02 98.6606 59.18V55.22L111.381 54.26V61.46C111.381 64.26 110.781 66.78 109.581 69.02C108.381 71.18 106.381 72.9 103.581 74.18C100.781 75.46 96.9006 76.1 91.9406 76.1ZM74.5406 49.58V42.74H111.381V49.58H74.5406ZM138.113 76.1C132.833 76.1 128.833 75.46 126.113 74.18C123.473 72.9 121.673 71.18 120.713 69.02C119.753 66.86 119.272 64.5 119.272 61.94V32.54C119.272 29.9 119.753 27.54 120.713 25.46C121.673 23.3 123.513 21.58 126.233 20.3C129.033 19.02 133.113 18.38 138.473 18.38C143.273 18.38 147.073 19.02 149.873 20.3C152.673 21.5 154.633 23.14 155.753 25.22C156.953 27.3 157.553 29.66 157.553 32.3V43.58L144.833 44.42V34.7C144.833 33.02 144.313 31.54 143.273 30.26C142.313 28.9 140.673 28.22 138.353 28.22C136.113 28.22 134.473 28.86 133.433 30.14C132.473 31.42 131.993 32.94 131.993 34.7V59.54C131.993 61.22 132.473 62.66 133.433 63.86C134.393 65.06 135.913 65.66 137.993 65.66C140.473 65.66 142.233 65.06 143.273 63.86C144.313 62.58 144.833 61.02 144.833 59.18V55.22L157.553 54.26V61.46C157.553 64.26 156.953 66.78 155.753 69.02C154.553 71.18 152.553 72.9 149.753 74.18C146.953 75.46 143.073 76.1 138.113 76.1ZM120.713 49.58V42.74H157.553V49.58H120.713ZM176.844 75.5C173.884 75.5 171.604 75.18 170.004 74.54C168.484 73.9 167.404 72.58 166.764 70.58C166.204 68.58 165.924 65.58 165.924 61.58V31.7C165.924 28.66 166.364 26.22 167.244 24.38C168.204 22.54 169.684 21.22 171.684 20.42C173.684 19.54 176.284 19.1 179.484 19.1H191.484V0.139997H204.204V75.5H176.844ZM191.484 65.3V29.3H183.204C181.444 29.3 180.244 29.66 179.604 30.38C178.964 31.02 178.644 32.26 178.644 34.1V59.9C178.644 62.3 178.964 63.82 179.604 64.46C180.244 65.02 181.404 65.3 183.084 65.3H191.484Z" fill="#1C1C1C"/>
<path d="M4.44 1.1V0.0999994H3.44V1.1H4.44ZM17.52 1.1H18.52V0.0999994H17.52V1.1ZM17.52 75.5V76.5H18.52V75.5H17.52ZM4.44 75.5H3.44V76.5H4.44V75.5ZM4.44 2.1H17.52V0.0999994H4.44V2.1ZM16.52 1.1V75.5H18.52V1.1H16.52ZM17.52 74.5H4.44V76.5H17.52V74.5ZM5.44 75.5V1.1H3.44V75.5H5.44ZM26.5969 18.98V17.98H25.5969V18.98H26.5969ZM37.0369 18.98L38.0167 18.78L37.8534 17.98H37.0369V18.98ZM38.2369 24.86L37.2571 25.06L37.7978 27.7095L39.111 25.3456L38.2369 24.86ZM43.3969 19.94L43.8441 20.8345L43.8563 20.8282L43.3969 19.94ZM61.3969 21.14L60.7439 21.8974L60.7439 21.8974L61.3969 21.14ZM64.8769 75.5V76.5H65.8769V75.5H64.8769ZM52.1569 75.5H51.1569V76.5H52.1569V75.5ZM50.4769 29.9L49.7986 30.6348L49.8121 30.6473L49.8261 30.6593L50.4769 29.9ZM41.4769 29.78L42.1171 30.5482L42.1228 30.5434L41.4769 29.78ZM39.3169 33.26L38.3633 32.9589L38.3169 33.1059V33.26H39.3169ZM39.3169 75.5V76.5H40.3169V75.5H39.3169ZM26.5969 75.5H25.5969V76.5H26.5969V75.5ZM26.5969 19.98H37.0369V17.98H26.5969V19.98ZM36.0571 19.18L37.2571 25.06L39.2167 24.66L38.0167 18.78L36.0571 19.18ZM39.111 25.3456C40.2118 23.3643 41.7817 21.8656 43.8441 20.8344L42.9497 19.0456C40.532 20.2544 38.662 22.0357 37.3627 24.3744L39.111 25.3456ZM43.8563 20.8282C46.0092 19.7147 48.5659 19.14 51.5569 19.14V17.14C48.3079 17.14 45.4246 17.7653 42.9375 19.0518L43.8563 20.8282ZM51.5569 19.14C55.649 19.14 58.6647 20.1049 60.7439 21.8974L62.0498 20.3826C59.4891 18.175 55.9447 17.14 51.5569 17.14V19.14ZM60.7439 21.8974C62.7723 23.646 63.8769 26.4014 63.8769 30.38H65.8769C65.8769 26.0386 64.6614 22.634 62.0498 20.3826L60.7439 21.8974ZM63.8769 30.38V75.5H65.8769V30.38H63.8769ZM64.8769 74.5H52.1569V76.5H64.8769V74.5ZM53.1569 75.5V34.7H51.1569V75.5H53.1569ZM53.1569 34.7C53.1569 32.3206 52.5636 30.3715 51.1277 29.1407L49.8261 30.6593C50.6302 31.3485 51.1569 32.5994 51.1569 34.7H53.1569ZM51.1552 29.1652C49.8598 27.9695 48.012 27.46 45.7969 27.46V29.46C47.7417 29.46 49.0139 29.9105 49.7986 30.6348L51.1552 29.1652ZM45.7969 27.46C43.8036 27.46 42.1062 27.9375 40.8309 29.0166L42.1228 30.5434C42.9275 29.8625 44.1102 29.46 45.7969 29.46V27.46ZM40.8367 29.0118C39.6941 29.9639 38.8852 31.3062 38.3633 32.9589L40.2705 33.5611C40.7086 32.1738 41.3396 31.1961 42.1171 30.5482L40.8367 29.0118ZM38.3169 33.26V75.5H40.3169V33.26H38.3169ZM39.3169 74.5H26.5969V76.5H39.3169V74.5ZM27.5969 75.5V18.98H25.5969V75.5H27.5969ZM79.9406 74.18L79.5043 75.0799L79.5148 75.0848L79.9406 74.18ZM74.5406 69.02L75.4544 68.6139L75.4544 68.6139L74.5406 69.02ZM74.5406 25.46L75.4486 25.8791L75.4516 25.8726L75.4544 25.8661L74.5406 25.46ZM80.0606 20.3L79.6448 19.3905L79.6348 19.3952L80.0606 20.3ZM103.701 20.3L103.285 21.2095L103.296 21.2144L103.307 21.2191L103.701 20.3ZM109.581 25.22L108.7 25.6941L108.707 25.707L108.714 25.7197L109.581 25.22ZM111.381 43.58L111.447 44.5778L112.381 44.5161V43.58H111.381ZM98.6606 44.42H97.6606V45.4882L98.7265 45.4178L98.6606 44.42ZM97.1006 30.26L96.2837 30.8367L96.3032 30.8643L96.3245 30.8906L97.1006 30.26ZM87.2606 30.14L86.4845 29.5094L86.4723 29.5245L86.4606 29.54L87.2606 30.14ZM97.1006 63.86L97.8563 64.5149L97.8667 64.5029L97.8767 64.4906L97.1006 63.86ZM98.6606 55.22L98.5854 54.2228L97.6606 54.2926V55.22H98.6606ZM111.381 54.26H112.381V53.1817L111.305 53.2628L111.381 54.26ZM109.581 69.02L110.455 69.5056L110.458 69.499L110.462 69.4922L109.581 69.02ZM103.581 74.18L103.165 73.2705L103.165 73.2705L103.581 74.18ZM74.5406 49.58H73.5406V50.58H74.5406V49.58ZM74.5406 42.74V41.74H73.5406V42.74H74.5406ZM111.381 42.74H112.381V41.74H111.381V42.74ZM111.381 49.58V50.58H112.381V49.58H111.381ZM91.9406 75.1C86.7127 75.1 82.8879 74.4618 80.3664 73.2752L79.5148 75.0848C82.4333 76.4582 86.6085 77.1 91.9406 77.1V75.1ZM80.3769 73.2802C77.8964 72.0775 76.2971 70.5098 75.4544 68.6139L73.6268 69.4261C74.7042 71.8502 76.7048 73.7225 79.5044 75.0798L80.3769 73.2802ZM75.4544 68.6139C74.5559 66.592 74.1006 64.3718 74.1006 61.94H72.1006C72.1006 64.6282 72.6054 67.128 73.6268 69.4261L75.4544 68.6139ZM74.1006 61.94V32.54H72.1006V61.94H74.1006ZM74.1006 32.54C74.1006 30.0227 74.5578 27.8091 75.4486 25.8791L73.6327 25.0409C72.6034 27.2709 72.1006 29.7773 72.1006 32.54H74.1006ZM75.4544 25.8661C76.2927 23.9799 77.923 22.4111 80.4864 21.2048L79.6348 19.3952C76.7583 20.7489 74.7085 22.62 73.6268 25.0539L75.4544 25.8661ZM80.4764 21.2095C83.0828 20.018 86.9931 19.38 92.3006 19.38V17.38C86.8882 17.38 82.6384 18.022 79.6449 19.3905L80.4764 21.2095ZM92.3006 19.38C97.0291 19.38 100.668 20.0131 103.285 21.2095L104.116 19.3905C101.133 18.0269 97.1722 17.38 92.3006 17.38V19.38ZM103.307 21.2191C105.96 22.3562 107.715 23.8646 108.7 25.6941L110.461 24.7459C109.206 22.4154 107.041 20.6438 104.095 19.3809L103.307 21.2191ZM108.714 25.7197C109.818 27.633 110.381 29.8175 110.381 32.3H112.381C112.381 29.5025 111.743 26.967 110.447 24.7203L108.714 25.7197ZM110.381 32.3V43.58H112.381V32.3H110.381ZM111.315 42.5822L98.5947 43.4222L98.7265 45.4178L111.447 44.5778L111.315 42.5822ZM99.6606 44.42V34.7H97.6606V44.42H99.6606ZM99.6606 34.7C99.6606 32.795 99.0645 31.0912 97.8767 29.6294L96.3245 30.8906C97.2168 31.9888 97.6606 33.245 97.6606 34.7H99.6606ZM97.9176 29.6833C96.7027 27.9622 94.6876 27.22 92.1806 27.22V29.22C94.3137 29.22 95.5785 29.8377 96.2837 30.8367L97.9176 29.6833ZM92.1806 27.22C89.7541 27.22 87.7765 27.9193 86.4845 29.5094L88.0367 30.7706C88.8248 29.8007 90.1272 29.22 92.1806 29.22V27.22ZM86.4606 29.54C85.3577 31.0105 84.8206 32.7465 84.8206 34.7H86.8206C86.8206 33.1335 87.2435 31.8295 88.0606 30.74L86.4606 29.54ZM84.8206 34.7V59.54H86.8206V34.7H84.8206ZM84.8206 59.54C84.8206 61.4245 85.3644 63.0905 86.4798 64.4847L88.0415 63.2353C87.2368 62.2295 86.8206 61.0155 86.8206 59.54H84.8206ZM86.4798 64.4847C87.6911 65.9988 89.5514 66.66 91.8206 66.66V64.66C89.9299 64.66 88.7502 64.1212 88.0415 63.2353L86.4798 64.4847ZM91.8206 66.66C94.4286 66.66 96.5412 66.0324 97.8563 64.5149L96.3449 63.2051C95.5801 64.0876 94.1726 64.66 91.8206 64.66V66.66ZM97.8767 64.4906C99.0784 63.0116 99.6606 61.2215 99.6606 59.18H97.6606C97.6606 60.8185 97.2028 62.1484 96.3245 63.2294L97.8767 64.4906ZM99.6606 59.18V55.22H97.6606V59.18H99.6606ZM98.7359 56.2172L111.456 55.2572L111.305 53.2628L98.5854 54.2228L98.7359 56.2172ZM110.381 54.26V61.46H112.381V54.26H110.381ZM110.381 61.46C110.381 64.1124 109.814 66.4674 108.699 68.5478L110.462 69.4922C111.748 67.0926 112.381 64.4076 112.381 61.46H110.381ZM108.706 68.5344C107.633 70.4661 105.819 72.0571 103.165 73.2705L103.996 75.0895C106.942 73.7429 109.128 71.8939 110.455 69.5056L108.706 68.5344ZM103.165 73.2705C100.551 74.4654 96.8347 75.1 91.9406 75.1V77.1C96.9665 77.1 101.01 76.4546 103.996 75.0895L103.165 73.2705ZM75.5406 49.58V42.74H73.5406V49.58H75.5406ZM74.5406 43.74H111.381V41.74H74.5406V43.74ZM110.381 42.74V49.58H112.381V42.74H110.381ZM111.381 48.58H74.5406V50.58H111.381V48.58ZM126.113 74.18L125.676 75.0799L125.687 75.0848L126.113 74.18ZM120.713 69.02L121.626 68.6139L121.626 68.6139L120.713 69.02ZM120.713 25.46L121.62 25.8791L121.623 25.8726L121.626 25.8661L120.713 25.46ZM126.233 20.3L125.817 19.3905L125.807 19.3952L126.233 20.3ZM149.873 20.3L149.457 21.2095L149.468 21.2144L149.479 21.2191L149.873 20.3ZM155.753 25.22L154.872 25.6941L154.879 25.707L154.886 25.7197L155.753 25.22ZM157.553 43.58L157.618 44.5778L158.553 44.5161V43.58H157.553ZM144.833 44.42H143.833V45.4882L144.898 45.4178L144.833 44.42ZM143.273 30.26L142.456 30.8367L142.475 30.8643L142.496 30.8906L143.273 30.26ZM133.433 30.14L132.656 29.5094L132.644 29.5245L132.633 29.54L133.433 30.14ZM143.273 63.86L144.028 64.5149L144.039 64.5029L144.049 64.4906L143.273 63.86ZM144.833 55.22L144.757 54.2228L143.833 54.2926V55.22H144.833ZM157.553 54.26H158.553V53.1817L157.477 53.2628L157.553 54.26ZM155.753 69.02L156.627 69.5056L156.63 69.499L156.634 69.4922L155.753 69.02ZM149.753 74.18L149.337 73.2705L149.337 73.2705L149.753 74.18ZM120.713 49.58H119.713V50.58H120.713V49.58ZM120.713 42.74V41.74H119.713V42.74H120.713ZM157.553 42.74H158.553V41.74H157.553V42.74ZM157.553 49.58V50.58H158.553V49.58H157.553ZM138.113 75.1C132.885 75.1 129.06 74.4618 126.538 73.2752L125.687 75.0848C128.605 76.4582 132.78 77.1 138.113 77.1V75.1ZM126.549 73.2802C124.068 72.0775 122.469 70.5098 121.626 68.6139L119.799 69.4261C120.876 71.8502 122.877 73.7225 125.676 75.0798L126.549 73.2802ZM121.626 68.6139C120.728 66.592 120.272 64.3718 120.272 61.94H118.272C118.272 64.6282 118.777 67.128 119.799 69.4261L121.626 68.6139ZM120.272 61.94V32.54H118.272V61.94H120.272ZM120.272 32.54C120.272 30.0227 120.73 27.8091 121.62 25.8791L119.805 25.0409C118.775 27.2709 118.272 29.7773 118.272 32.54H120.272ZM121.626 25.8661C122.465 23.9799 124.095 22.4111 126.658 21.2048L125.807 19.3952C122.93 20.7489 120.88 22.62 119.799 25.0539L121.626 25.8661ZM126.648 21.2095C129.255 20.018 133.165 19.38 138.473 19.38V17.38C133.06 17.38 128.81 18.022 125.817 19.3905L126.648 21.2095ZM138.473 19.38C143.201 19.38 146.84 20.0131 149.457 21.2095L150.288 19.3905C147.305 18.0269 143.344 17.38 138.473 17.38V19.38ZM149.479 21.2191C152.132 22.3562 153.887 23.8646 154.872 25.6941L156.633 24.7459C155.378 22.4154 153.213 20.6438 150.266 19.3809L149.479 21.2191ZM154.886 25.7197C155.99 27.633 156.553 29.8175 156.553 32.3H158.553C158.553 29.5025 157.915 26.967 156.619 24.7203L154.886 25.7197ZM156.553 32.3V43.58H158.553V32.3H156.553ZM157.487 42.5822L144.767 43.4222L144.898 45.4178L157.618 44.5778L157.487 42.5822ZM145.833 44.42V34.7H143.833V44.42H145.833ZM145.833 34.7C145.833 32.795 145.236 31.0912 144.049 29.6294L142.496 30.8906C143.389 31.9888 143.833 33.245 143.833 34.7H145.833ZM144.089 29.6833C142.875 27.9622 140.859 27.22 138.353 27.22V29.22C140.486 29.22 141.75 29.8377 142.456 30.8367L144.089 29.6833ZM138.353 27.22C135.926 27.22 133.948 27.9193 132.656 29.5094L134.209 30.7706C134.997 29.8007 136.299 29.22 138.353 29.22V27.22ZM132.633 29.54C131.53 31.0105 130.993 32.7465 130.993 34.7H132.993C132.993 33.1335 133.415 31.8295 134.233 30.74L132.633 29.54ZM130.993 34.7V59.54H132.993V34.7H130.993ZM130.993 59.54C130.993 61.4245 131.536 63.0905 132.652 64.4847L134.213 63.2353C133.409 62.2295 132.993 61.0155 132.993 59.54H130.993ZM132.652 64.4847C133.863 65.9988 135.723 66.66 137.993 66.66V64.66C136.102 64.66 134.922 64.1212 134.213 63.2353L132.652 64.4847ZM137.993 66.66C140.601 66.66 142.713 66.0324 144.028 64.5149L142.517 63.2051C141.752 64.0876 140.344 64.66 137.993 64.66V66.66ZM144.049 64.4906C145.25 63.0116 145.833 61.2215 145.833 59.18H143.833C143.833 60.8185 143.375 62.1484 142.496 63.2294L144.049 64.4906ZM145.833 59.18V55.22H143.833V59.18H145.833ZM144.908 56.2172L157.628 55.2572L157.477 53.2628L144.757 54.2228L144.908 56.2172ZM156.553 54.26V61.46H158.553V54.26H156.553ZM156.553 61.46C156.553 64.1124 155.986 66.4674 154.871 68.5478L156.634 69.4922C157.919 67.0926 158.553 64.4076 158.553 61.46H156.553ZM154.878 68.5344C153.805 70.4661 151.991 72.0571 149.337 73.2705L150.168 75.0895C153.114 73.7429 155.3 71.8939 156.627 69.5056L154.878 68.5344ZM149.337 73.2705C146.723 74.4654 143.007 75.1 138.113 75.1V77.1C143.138 77.1 147.182 76.4546 150.168 75.0895L149.337 73.2705ZM121.713 49.58V42.74H119.713V49.58H121.713ZM120.713 43.74H157.553V41.74H120.713V43.74ZM156.553 42.74V49.58H158.553V42.74H156.553ZM157.553 48.58H120.713V50.58H157.553V48.58ZM170.004 74.54L169.616 75.4616L169.625 75.4651L169.633 75.4685L170.004 74.54ZM166.764 70.58L165.801 70.8496L165.806 70.8673L165.812 70.8848L166.764 70.58ZM167.244 24.38L166.358 23.9174L166.35 23.9329L166.342 23.9485L167.244 24.38ZM171.684 20.42L172.056 21.3485L172.072 21.3422L172.087 21.3353L171.684 20.42ZM191.484 19.1V20.1H192.484V19.1H191.484ZM191.484 0.139997V-0.860003H190.484V0.139997H191.484ZM204.204 0.139997H205.204V-0.860003H204.204V0.139997ZM204.204 75.5V76.5H205.204V75.5H204.204ZM191.484 65.3V66.3H192.484V65.3H191.484ZM191.484 29.3H192.484V28.3H191.484V29.3ZM179.604 30.38L180.311 31.0871L180.332 31.0663L180.352 31.0444L179.604 30.38ZM179.604 64.46L178.897 65.1671L178.921 65.1906L178.946 65.2126L179.604 64.46ZM176.844 74.5C173.934 74.5 171.802 74.182 170.376 73.6115L169.633 75.4685C171.407 76.178 173.835 76.5 176.844 76.5V74.5ZM170.392 73.6184C169.212 73.1213 168.294 72.0789 167.717 70.2752L165.812 70.8848C166.515 73.0811 167.757 74.6787 169.616 75.4616L170.392 73.6184ZM167.727 70.3104C167.205 68.4455 166.924 65.5565 166.924 61.58H164.924C164.924 65.6035 165.204 68.7145 165.801 70.8496L167.727 70.3104ZM166.924 61.58V31.7H164.924V61.58H166.924ZM166.924 31.7C166.924 28.7423 167.355 26.4671 168.147 24.8115L166.342 23.9485C165.374 25.9729 164.924 28.5777 164.924 31.7H166.924ZM168.131 24.8426C168.976 23.223 170.268 22.0634 172.056 21.3485L171.313 19.4915C169.1 20.3766 167.433 21.857 166.358 23.9174L168.131 24.8426ZM172.087 21.3353C173.915 20.5308 176.364 20.1 179.484 20.1V18.1C176.205 18.1 173.453 18.5492 171.282 19.5047L172.087 21.3353ZM179.484 20.1H191.484V18.1H179.484V20.1ZM192.484 19.1V0.139997H190.484V19.1H192.484ZM191.484 1.14H204.204V-0.860003H191.484V1.14ZM203.204 0.139997V75.5H205.204V0.139997H203.204ZM204.204 74.5H176.844V76.5H204.204V74.5ZM192.484 65.3V29.3H190.484V65.3H192.484ZM191.484 28.3H183.204V30.3H191.484V28.3ZM183.204 28.3C181.377 28.3 179.795 28.6606 178.857 29.7156L180.352 31.0444C180.694 30.6594 181.512 30.3 183.204 30.3V28.3ZM178.897 29.6729C177.951 30.6188 177.644 32.2305 177.644 34.1H179.644C179.644 32.2895 179.977 31.4212 180.311 31.0871L178.897 29.6729ZM177.644 34.1V59.9H179.644V34.1H177.644ZM177.644 59.9C177.644 61.1361 177.726 62.1922 177.906 63.046C178.08 63.8755 178.373 64.6432 178.897 65.1671L180.311 63.7529C180.195 63.6368 180.008 63.3245 179.863 62.634C179.723 61.9678 179.644 61.0639 179.644 59.9H177.644ZM178.946 65.2126C179.878 66.028 181.365 66.3 183.084 66.3V64.3C181.444 64.3 180.611 64.012 180.263 63.7074L178.946 65.2126ZM183.084 66.3H191.484V64.3H183.084V66.3Z" fill="black"/>
</g>
<defs>
<filter id="filter0_d_0_5" x="0.440002" y="0.139984" width="207.764" height="83.96" filterUnits="userSpaceOnUse" color-interpolation-filters="sRGB">
<feFlood flood-opacity="0" result="BackgroundImageFix"/>
<feColorMatrix in="SourceAlpha" type="matrix" values="0 0 0 0 0 0 0 0 0 0 0 0 0 0 0 0 0 0 127 0" result="hardAlpha"/>
<feOffset dy="4"/>
<feGaussianBlur stdDeviation="2"/>
<feComposite in2="hardAlpha" operator="out"/>
<feColorMatrix type="matrix" values="0 0 0 0 0 0 0 0 0 0 0 0 0 0 0 0 0 0 0.25 0"/>
<feBlend mode="normal" in2="BackgroundImageFix" result="effect1_dropShadow_0_5"/>
<feBlend mode="normal" in="SourceGraphic" in2="effect1_dropShadow_0_5" result="shape"/>
</filter>
</defs>
</svg>
