<svg width="365" height="25" viewBox="0 0 365 25" fill="none" xmlns="http://www.w3.org/2000/svg">
<path d="M117.228 16.388H120.812V18.5H114.492V7.268H117.228V16.388ZM126.181 18.628C125.306 18.628 124.517 18.4413 123.813 18.068C123.12 17.6947 122.57 17.1613 122.165 16.468C121.77 15.7747 121.573 14.964 121.573 14.036C121.573 13.1187 121.776 12.3133 122.181 11.62C122.586 10.916 123.141 10.3773 123.845 10.004C124.549 9.63067 125.338 9.444 126.213 9.444C127.088 9.444 127.877 9.63067 128.581 10.004C129.285 10.3773 129.84 10.916 130.245 11.62C130.65 12.3133 130.853 13.1187 130.853 14.036C130.853 14.9533 130.645 15.764 130.229 16.468C129.824 17.1613 129.264 17.6947 128.549 18.068C127.845 18.4413 127.056 18.628 126.181 18.628ZM126.181 16.26C126.704 16.26 127.146 16.068 127.509 15.684C127.882 15.3 128.069 14.7507 128.069 14.036C128.069 13.3213 127.888 12.772 127.525 12.388C127.173 12.004 126.736 11.812 126.213 11.812C125.68 11.812 125.237 12.004 124.885 12.388C124.533 12.7613 124.357 13.3107 124.357 14.036C124.357 14.7507 124.528 15.3 124.869 15.684C125.221 16.068 125.658 16.26 126.181 16.26ZM135.697 9.444C136.326 9.444 136.875 9.572 137.345 9.828C137.825 10.084 138.193 10.42 138.449 10.836V9.572H141.185V18.484C141.185 19.3053 141.019 20.0467 140.689 20.708C140.369 21.38 139.873 21.9133 139.201 22.308C138.539 22.7027 137.713 22.9 136.721 22.9C135.398 22.9 134.326 22.5853 133.505 21.956C132.683 21.3373 132.214 20.4947 132.097 19.428H134.801C134.886 19.7693 135.089 20.036 135.409 20.228C135.729 20.4307 136.123 20.532 136.593 20.532C137.158 20.532 137.606 20.3667 137.937 20.036C138.278 19.716 138.449 19.1987 138.449 18.484V17.22C138.182 17.636 137.814 17.9773 137.345 18.244C136.875 18.5 136.326 18.628 135.697 18.628C134.961 18.628 134.294 18.4413 133.697 18.068C133.099 17.684 132.625 17.1453 132.273 16.452C131.931 15.748 131.761 14.9373 131.761 14.02C131.761 13.1027 131.931 12.2973 132.273 11.604C132.625 10.9107 133.099 10.3773 133.697 10.004C134.294 9.63067 134.961 9.444 135.697 9.444ZM138.449 14.036C138.449 13.3533 138.257 12.8147 137.873 12.42C137.499 12.0253 137.041 11.828 136.497 11.828C135.953 11.828 135.489 12.0253 135.105 12.42C134.731 12.804 134.545 13.3373 134.545 14.02C134.545 14.7027 134.731 15.2467 135.105 15.652C135.489 16.0467 135.953 16.244 136.497 16.244C137.041 16.244 137.499 16.0467 137.873 15.652C138.257 15.2573 138.449 14.7187 138.449 14.036ZM144.54 8.644C144.06 8.644 143.665 8.50533 143.356 8.228C143.057 7.94 142.908 7.588 142.908 7.172C142.908 6.74533 143.057 6.39333 143.356 6.116C143.665 5.828 144.06 5.684 144.54 5.684C145.009 5.684 145.393 5.828 145.692 6.116C146.001 6.39333 146.156 6.74533 146.156 7.172C146.156 7.588 146.001 7.94 145.692 8.228C145.393 8.50533 145.009 8.644 144.54 8.644ZM145.9 9.572V18.5H143.164V9.572H145.9ZM153.323 9.476C154.368 9.476 155.2 9.81733 155.819 10.5C156.448 11.172 156.763 12.1 156.763 13.284V18.5H154.043V13.652C154.043 13.0547 153.888 12.5907 153.579 12.26C153.269 11.9293 152.853 11.764 152.331 11.764C151.808 11.764 151.392 11.9293 151.083 12.26C150.773 12.5907 150.619 13.0547 150.619 13.652V18.5H147.883V9.572H150.619V10.756C150.896 10.3613 151.269 10.052 151.739 9.828C152.208 9.59333 152.736 9.476 153.323 9.476ZM174.85 9.732L172.114 18.5H170.61L168.498 11.54L166.386 18.5H164.882L162.13 9.732H163.618L165.634 17.092L167.81 9.732H169.298L171.426 17.108L173.41 9.732H174.85ZM177.047 8.308C176.769 8.308 176.535 8.212 176.343 8.02C176.151 7.828 176.055 7.59333 176.055 7.316C176.055 7.03867 176.151 6.804 176.343 6.612C176.535 6.42 176.769 6.324 177.047 6.324C177.313 6.324 177.537 6.42 177.719 6.612C177.911 6.804 178.007 7.03867 178.007 7.316C178.007 7.59333 177.911 7.828 177.719 8.02C177.537 8.212 177.313 8.308 177.047 8.308ZM177.751 9.732V18.5H176.295V9.732H177.751ZM182.008 10.932V16.1C182.008 16.5267 182.099 16.8307 182.28 17.012C182.461 17.1827 182.776 17.268 183.224 17.268H184.296V18.5H182.984C182.173 18.5 181.565 18.3133 181.16 17.94C180.755 17.5667 180.552 16.9533 180.552 16.1V10.932H179.416V9.732H180.552V7.524H182.008V9.732H184.296V10.932H182.008ZM190.412 9.572C191.073 9.572 191.671 9.716 192.204 10.004C192.737 10.2813 193.153 10.7027 193.452 11.268C193.761 11.8333 193.916 12.5213 193.916 13.332V18.5H192.476V13.54C192.476 12.6653 192.257 11.9987 191.82 11.54C191.383 11.0707 190.785 10.836 190.028 10.836C189.26 10.836 188.647 11.076 188.188 11.556C187.74 12.036 187.516 12.7347 187.516 13.652V18.5H186.06V6.66H187.516V10.98C187.804 10.532 188.199 10.1853 188.7 9.94C189.212 9.69467 189.783 9.572 190.412 9.572ZM205.616 18.612C204.581 18.612 203.637 18.372 202.784 17.892C201.931 17.4013 201.253 16.724 200.752 15.86C200.261 14.9853 200.016 14.004 200.016 12.916C200.016 11.828 200.261 10.852 200.752 9.988C201.253 9.11333 201.931 8.436 202.784 7.956C203.637 7.46533 204.581 7.22 205.616 7.22C206.661 7.22 207.611 7.46533 208.464 7.956C209.317 8.436 209.989 9.108 210.48 9.972C210.971 10.836 211.216 11.8173 211.216 12.916C211.216 14.0147 210.971 14.996 210.48 15.86C209.989 16.724 209.317 17.4013 208.464 17.892C207.611 18.372 206.661 18.612 205.616 18.612ZM205.616 17.348C206.395 17.348 207.093 17.1667 207.712 16.804C208.341 16.4413 208.832 15.924 209.184 15.252C209.547 14.58 209.728 13.8013 209.728 12.916C209.728 12.02 209.547 11.2413 209.184 10.58C208.832 9.908 208.347 9.39067 207.728 9.028C207.109 8.66533 206.405 8.484 205.616 8.484C204.827 8.484 204.123 8.66533 203.504 9.028C202.885 9.39067 202.395 9.908 202.032 10.58C201.68 11.2413 201.504 12.02 201.504 12.916C201.504 13.8013 201.68 14.58 202.032 15.252C202.395 15.924 202.885 16.4413 203.504 16.804C204.133 17.1667 204.837 17.348 205.616 17.348ZM214.914 10.932V16.1C214.914 16.5267 215.005 16.8307 215.186 17.012C215.368 17.1827 215.682 17.268 216.13 17.268H217.202V18.5H215.89C215.08 18.5 214.472 18.3133 214.066 17.94C213.661 17.5667 213.458 16.9533 213.458 16.1V10.932H212.322V9.732H213.458V7.524H214.914V9.732H217.202V10.932H214.914ZM223.318 9.572C223.98 9.572 224.577 9.716 225.11 10.004C225.644 10.2813 226.06 10.7027 226.358 11.268C226.668 11.8333 226.822 12.5213 226.822 13.332V18.5H225.382V13.54C225.382 12.6653 225.164 11.9987 224.726 11.54C224.289 11.0707 223.692 10.836 222.934 10.836C222.166 10.836 221.553 11.076 221.094 11.556C220.646 12.036 220.422 12.7347 220.422 13.652V18.5H218.966V6.66H220.422V10.98C220.71 10.532 221.105 10.1853 221.606 9.94C222.118 9.69467 222.689 9.572 223.318 9.572ZM237.201 13.78C237.201 14.0573 237.185 14.3507 237.153 14.66H230.145C230.198 15.524 230.491 16.2013 231.025 16.692C231.569 17.172 232.225 17.412 232.993 17.412C233.622 17.412 234.145 17.268 234.561 16.98C234.987 16.6813 235.286 16.2867 235.457 15.796H237.025C236.79 16.6387 236.321 17.3267 235.617 17.86C234.913 18.3827 234.038 18.644 232.993 18.644C232.161 18.644 231.414 18.4573 230.753 18.084C230.102 17.7107 229.59 17.1827 229.217 16.5C228.843 15.8067 228.657 15.0067 228.657 14.1C228.657 13.1933 228.838 12.3987 229.201 11.716C229.563 11.0333 230.07 10.5107 230.721 10.148C231.382 9.77467 232.139 9.588 232.993 9.588C233.825 9.588 234.561 9.76933 235.201 10.132C235.841 10.4947 236.331 10.996 236.673 11.636C237.025 12.2653 237.201 12.98 237.201 13.78ZM235.697 13.476C235.697 12.9213 235.574 12.4467 235.329 12.052C235.083 11.6467 234.747 11.3427 234.321 11.14C233.905 10.9267 233.441 10.82 232.929 10.82C232.193 10.82 231.563 11.0547 231.041 11.524C230.529 11.9933 230.235 12.644 230.161 13.476H235.697ZM240.579 11.156C240.835 10.6547 241.197 10.2653 241.667 9.988C242.147 9.71067 242.728 9.572 243.411 9.572V11.076H243.027C241.395 11.076 240.579 11.9613 240.579 13.732V18.5H239.123V9.732H240.579V11.156ZM248.195 18.644C247.523 18.644 246.921 18.532 246.387 18.308C245.854 18.0733 245.433 17.7533 245.123 17.348C244.814 16.932 244.643 16.4573 244.611 15.924H246.115C246.158 16.3613 246.361 16.7187 246.723 16.996C247.097 17.2733 247.582 17.412 248.179 17.412C248.734 17.412 249.171 17.2893 249.491 17.044C249.811 16.7987 249.971 16.4893 249.971 16.116C249.971 15.732 249.801 15.4493 249.459 15.268C249.118 15.076 248.59 14.8893 247.875 14.708C247.225 14.5373 246.691 14.3667 246.275 14.196C245.87 14.0147 245.518 13.7533 245.219 13.412C244.931 13.06 244.787 12.6013 244.787 12.036C244.787 11.588 244.921 11.1773 245.187 10.804C245.454 10.4307 245.833 10.1373 246.323 9.924C246.814 9.7 247.374 9.588 248.003 9.588C248.974 9.588 249.758 9.83333 250.355 10.324C250.953 10.8147 251.273 11.4867 251.315 12.34H249.859C249.827 11.8813 249.641 11.5133 249.299 11.236C248.969 10.9587 248.521 10.82 247.955 10.82C247.433 10.82 247.017 10.932 246.707 11.156C246.398 11.38 246.243 11.6733 246.243 12.036C246.243 12.324 246.334 12.564 246.515 12.756C246.707 12.9373 246.942 13.0867 247.219 13.204C247.507 13.3107 247.902 13.4333 248.403 13.572C249.033 13.7427 249.545 13.9133 249.939 14.084C250.334 14.244 250.67 14.4893 250.947 14.82C251.235 15.1507 251.385 15.5827 251.395 16.116C251.395 16.596 251.262 17.028 250.995 17.412C250.729 17.796 250.35 18.1 249.859 18.324C249.379 18.5373 248.825 18.644 248.195 18.644Z" fill="#1C1C1C"/>
<path fill-rule="evenodd" clip-rule="evenodd" d="M109.5 11.5H0.5V12.5H109.5V11.5ZM255.5 12.5H364.5V11.5H255.5V12.5Z" fill="#F0EDFF"/>
</svg>
