<svg width="365" height="53" viewBox="0 0 365 53" fill="none" xmlns="http://www.w3.org/2000/svg">
<rect x="0.5" y="0.5" width="364" height="52" rx="13" fill="#1C1C1C"/>
<path d="M174.78 30.5H172.728L169.296 25.304V30.5H167.244V22.076H169.296L172.728 27.296V22.076H174.78V30.5ZM178.319 23.72V25.424H181.067V27.008H178.319V28.856H181.427V30.5H176.267V22.076H181.427V23.72H178.319ZM187.92 30.5L186.204 27.92L184.692 30.5H182.364L185.064 26.216L182.304 22.076H184.692L186.384 24.62L187.872 22.076H190.2L187.524 26.324L190.308 30.5H187.92ZM197.398 22.076V23.72H195.166V30.5H193.114V23.72H190.882V22.076H197.398Z" fill="white"/>
</svg>
