<svg width="365" height="53" viewBox="0 0 365 53" fill="none" xmlns="http://www.w3.org/2000/svg">
<rect x="0.5" y="0.5" width="364" height="52" rx="13" fill="#F2F2F2"/>
<path d="M55.016 24.584C55.016 25.28 54.776 25.86 54.296 26.324C53.824 26.78 53.1 27.008 52.124 27.008H50.516V30.5H49.424V22.136H52.124C53.068 22.136 53.784 22.364 54.272 22.82C54.768 23.276 55.016 23.864 55.016 24.584ZM52.124 26.108C52.732 26.108 53.18 25.976 53.468 25.712C53.756 25.448 53.9 25.072 53.9 24.584C53.9 23.552 53.308 23.036 52.124 23.036H50.516V26.108H52.124ZM55.9652 27.188C55.9652 26.516 56.1012 25.928 56.3732 25.424C56.6452 24.912 57.0172 24.516 57.4892 24.236C57.9692 23.956 58.5012 23.816 59.0852 23.816C59.6612 23.816 60.1612 23.94 60.5852 24.188C61.0092 24.436 61.3252 24.748 61.5332 25.124V23.924H62.6372V30.5H61.5332V29.276C61.3172 29.66 60.9932 29.98 60.5612 30.236C60.1372 30.484 59.6412 30.608 59.0732 30.608C58.4892 30.608 57.9612 30.464 57.4892 30.176C57.0172 29.888 56.6452 29.484 56.3732 28.964C56.1012 28.444 55.9652 27.852 55.9652 27.188ZM61.5332 27.2C61.5332 26.704 61.4332 26.272 61.2332 25.904C61.0332 25.536 60.7612 25.256 60.4172 25.064C60.0812 24.864 59.7092 24.764 59.3012 24.764C58.8932 24.764 58.5212 24.86 58.1852 25.052C57.8492 25.244 57.5812 25.524 57.3812 25.892C57.1812 26.26 57.0812 26.692 57.0812 27.188C57.0812 27.692 57.1812 28.132 57.3812 28.508C57.5812 28.876 57.8492 29.16 58.1852 29.36C58.5212 29.552 58.8932 29.648 59.3012 29.648C59.7092 29.648 60.0812 29.552 60.4172 29.36C60.7612 29.16 61.0332 28.876 61.2332 28.508C61.4332 28.132 61.5332 27.696 61.5332 27.2ZM66.8106 30.608C66.3066 30.608 65.8546 30.524 65.4546 30.356C65.0546 30.18 64.7386 29.94 64.5066 29.636C64.2746 29.324 64.1466 28.968 64.1226 28.568H65.2506C65.2826 28.896 65.4346 29.164 65.7066 29.372C65.9866 29.58 66.3506 29.684 66.7986 29.684C67.2146 29.684 67.5426 29.592 67.7826 29.408C68.0226 29.224 68.1426 28.992 68.1426 28.712C68.1426 28.424 68.0146 28.212 67.7586 28.076C67.5026 27.932 67.1066 27.792 66.5706 27.656C66.0826 27.528 65.6826 27.4 65.3706 27.272C65.0666 27.136 64.8026 26.94 64.5786 26.684C64.3626 26.42 64.2546 26.076 64.2546 25.652C64.2546 25.316 64.3546 25.008 64.5546 24.728C64.7546 24.448 65.0386 24.228 65.4066 24.068C65.7746 23.9 66.1946 23.816 66.6666 23.816C67.3946 23.816 67.9826 24 68.4306 24.368C68.8786 24.736 69.1186 25.24 69.1506 25.88H68.0586C68.0346 25.536 67.8946 25.26 67.6386 25.052C67.3906 24.844 67.0546 24.74 66.6306 24.74C66.2386 24.74 65.9266 24.824 65.6946 24.992C65.4626 25.16 65.3466 25.38 65.3466 25.652C65.3466 25.868 65.4146 26.048 65.5506 26.192C65.6946 26.328 65.8706 26.44 66.0786 26.528C66.2946 26.608 66.5906 26.7 66.9666 26.804C67.4386 26.932 67.8226 27.06 68.1186 27.188C68.4146 27.308 68.6666 27.492 68.8746 27.74C69.0906 27.988 69.2026 28.312 69.2106 28.712C69.2106 29.072 69.1106 29.396 68.9106 29.684C68.7106 29.972 68.4266 30.2 68.0586 30.368C67.6986 30.528 67.2826 30.608 66.8106 30.608ZM73.0801 30.608C72.5761 30.608 72.1241 30.524 71.7241 30.356C71.3241 30.18 71.0081 29.94 70.7761 29.636C70.5441 29.324 70.4161 28.968 70.3921 28.568H71.5201C71.5521 28.896 71.7041 29.164 71.9761 29.372C72.2561 29.58 72.6201 29.684 73.0681 29.684C73.4841 29.684 73.8121 29.592 74.0521 29.408C74.2921 29.224 74.4121 28.992 74.4121 28.712C74.4121 28.424 74.2841 28.212 74.0281 28.076C73.7721 27.932 73.3761 27.792 72.8401 27.656C72.3521 27.528 71.9521 27.4 71.6401 27.272C71.3361 27.136 71.0721 26.94 70.8481 26.684C70.6321 26.42 70.5241 26.076 70.5241 25.652C70.5241 25.316 70.6241 25.008 70.8241 24.728C71.0241 24.448 71.3081 24.228 71.6761 24.068C72.0441 23.9 72.4641 23.816 72.9361 23.816C73.6641 23.816 74.2521 24 74.7001 24.368C75.1481 24.736 75.3881 25.24 75.4201 25.88H74.3281C74.3041 25.536 74.1641 25.26 73.9081 25.052C73.6601 24.844 73.3241 24.74 72.9001 24.74C72.5081 24.74 72.1961 24.824 71.9641 24.992C71.7321 25.16 71.6161 25.38 71.6161 25.652C71.6161 25.868 71.6841 26.048 71.8201 26.192C71.9641 26.328 72.1401 26.44 72.3481 26.528C72.5641 26.608 72.8601 26.7 73.2361 26.804C73.7081 26.932 74.0921 27.06 74.3881 27.188C74.6841 27.308 74.9361 27.492 75.1441 27.74C75.3601 27.988 75.4721 28.312 75.4801 28.712C75.4801 29.072 75.3801 29.396 75.1801 29.684C74.9801 29.972 74.6961 30.2 74.3281 30.368C73.9681 30.528 73.5521 30.608 73.0801 30.608ZM85.7817 23.924L83.7297 30.5H82.6017L81.0177 25.28L79.4337 30.5H78.3057L76.2417 23.924H77.3577L78.8697 29.444L80.5017 23.924H81.6177L83.2137 29.456L84.7017 23.924H85.7817ZM89.7334 30.608C89.1174 30.608 88.5574 30.468 88.0534 30.188C87.5574 29.908 87.1654 29.512 86.8774 29C86.5974 28.48 86.4574 27.88 86.4574 27.2C86.4574 26.528 86.6014 25.936 86.8894 25.424C87.1854 24.904 87.5854 24.508 88.0894 24.236C88.5934 23.956 89.1574 23.816 89.7814 23.816C90.4054 23.816 90.9694 23.956 91.4734 24.236C91.9774 24.508 92.3734 24.9 92.6614 25.412C92.9574 25.924 93.1054 26.52 93.1054 27.2C93.1054 27.88 92.9534 28.48 92.6494 29C92.3534 29.512 91.9494 29.908 91.4374 30.188C90.9254 30.468 90.3574 30.608 89.7334 30.608ZM89.7334 29.648C90.1254 29.648 90.4934 29.556 90.8374 29.372C91.1814 29.188 91.4574 28.912 91.6654 28.544C91.8814 28.176 91.9894 27.728 91.9894 27.2C91.9894 26.672 91.8854 26.224 91.6774 25.856C91.4694 25.488 91.1974 25.216 90.8614 25.04C90.5254 24.856 90.1614 24.764 89.7694 24.764C89.3694 24.764 89.0014 24.856 88.6654 25.04C88.3374 25.216 88.0734 25.488 87.8734 25.856C87.6734 26.224 87.5734 26.672 87.5734 27.2C87.5734 27.736 87.6694 28.188 87.8614 28.556C88.0614 28.924 88.3254 29.2 88.6534 29.384C88.9814 29.56 89.3414 29.648 89.7334 29.648ZM95.6332 24.992C95.8252 24.616 96.0972 24.324 96.4492 24.116C96.8092 23.908 97.2452 23.804 97.7572 23.804V24.932H97.4692C96.2452 24.932 95.6332 25.596 95.6332 26.924V30.5H94.5412V23.924H95.6332V24.992ZM98.6098 27.188C98.6098 26.516 98.7458 25.928 99.0178 25.424C99.2898 24.912 99.6618 24.516 100.134 24.236C100.614 23.956 101.15 23.816 101.742 23.816C102.254 23.816 102.73 23.936 103.17 24.176C103.61 24.408 103.946 24.716 104.178 25.1V21.62H105.282V30.5H104.178V29.264C103.962 29.656 103.642 29.98 103.218 30.236C102.794 30.484 102.298 30.608 101.73 30.608C101.146 30.608 100.614 30.464 100.134 30.176C99.6618 29.888 99.2898 29.484 99.0178 28.964C98.7458 28.444 98.6098 27.852 98.6098 27.188ZM104.178 27.2C104.178 26.704 104.078 26.272 103.878 25.904C103.678 25.536 103.406 25.256 103.062 25.064C102.726 24.864 102.354 24.764 101.946 24.764C101.538 24.764 101.166 24.86 100.83 25.052C100.494 25.244 100.226 25.524 100.026 25.892C99.8258 26.26 99.7258 26.692 99.7258 27.188C99.7258 27.692 99.8258 28.132 100.026 28.508C100.226 28.876 100.494 29.16 100.83 29.36C101.166 29.552 101.538 29.648 101.946 29.648C102.354 29.648 102.726 29.552 103.062 29.36C103.406 29.16 103.678 28.876 103.878 28.508C104.078 28.132 104.178 27.696 104.178 27.2Z" fill="#1C1C1C"/>
<path d="M24.5 22.5V21.5C24.5 18.1863 27.1863 15.5 30.5 15.5C33.8137 15.5 36.5 18.1863 36.5 21.5V22.5H38.5C39.0523 22.5 39.5 22.9477 39.5 23.5V35.5C39.5 36.0523 39.0523 36.5 38.5 36.5H22.5C21.9477 36.5 21.5 36.0523 21.5 35.5V23.5C21.5 22.9477 21.9477 22.5 22.5 22.5H24.5ZM37.5 24.5H23.5V34.5H37.5V24.5ZM29.5 30.2324C28.9022 29.8866 28.5 29.2403 28.5 28.5C28.5 27.3954 29.3954 26.5 30.5 26.5C31.6046 26.5 32.5 27.3954 32.5 28.5C32.5 29.2403 32.0978 29.8866 31.5 30.2324V32.5H29.5V30.2324ZM26.5 22.5H34.5V21.5C34.5 19.2909 32.7091 17.5 30.5 17.5C28.2909 17.5 26.5 19.2909 26.5 21.5V22.5Z" fill="#1C1C1C"/>
</svg>
