<svg width="365" height="53" viewBox="0 0 365 53" fill="none" xmlns="http://www.w3.org/2000/svg">
<rect x="0.5" y="0.5" width="364" height="52" rx="13" fill="#F2F2F2"/>
<path d="M50.492 22.136V27.428C50.492 28.172 50.672 28.724 51.032 29.084C51.4 29.444 51.908 29.624 52.556 29.624C53.196 29.624 53.696 29.444 54.056 29.084C54.424 28.724 54.608 28.172 54.608 27.428V22.136H55.7V27.416C55.7 28.112 55.56 28.7 55.28 29.18C55 29.652 54.62 30.004 54.14 30.236C53.668 30.468 53.136 30.584 52.544 30.584C51.952 30.584 51.416 30.468 50.936 30.236C50.464 30.004 50.088 29.652 49.808 29.18C49.536 28.7 49.4 28.112 49.4 27.416V22.136H50.492ZM59.8497 30.608C59.3457 30.608 58.8937 30.524 58.4937 30.356C58.0937 30.18 57.7777 29.94 57.5457 29.636C57.3137 29.324 57.1857 28.968 57.1617 28.568H58.2897C58.3217 28.896 58.4737 29.164 58.7457 29.372C59.0257 29.58 59.3897 29.684 59.8377 29.684C60.2537 29.684 60.5817 29.592 60.8217 29.408C61.0617 29.224 61.1817 28.992 61.1817 28.712C61.1817 28.424 61.0537 28.212 60.7977 28.076C60.5417 27.932 60.1457 27.792 59.6097 27.656C59.1217 27.528 58.7217 27.4 58.4097 27.272C58.1057 27.136 57.8417 26.94 57.6177 26.684C57.4017 26.42 57.2937 26.076 57.2937 25.652C57.2937 25.316 57.3937 25.008 57.5937 24.728C57.7937 24.448 58.0777 24.228 58.4457 24.068C58.8137 23.9 59.2337 23.816 59.7057 23.816C60.4337 23.816 61.0217 24 61.4697 24.368C61.9177 24.736 62.1577 25.24 62.1897 25.88H61.0977C61.0737 25.536 60.9337 25.26 60.6777 25.052C60.4297 24.844 60.0937 24.74 59.6697 24.74C59.2777 24.74 58.9657 24.824 58.7337 24.992C58.5017 25.16 58.3857 25.38 58.3857 25.652C58.3857 25.868 58.4537 26.048 58.5897 26.192C58.7337 26.328 58.9097 26.44 59.1177 26.528C59.3337 26.608 59.6297 26.7 60.0057 26.804C60.4777 26.932 60.8617 27.06 61.1577 27.188C61.4537 27.308 61.7057 27.492 61.9137 27.74C62.1297 27.988 62.2417 28.312 62.2497 28.712C62.2497 29.072 62.1497 29.396 61.9497 29.684C61.7497 29.972 61.4657 30.2 61.0977 30.368C60.7377 30.528 60.3217 30.608 59.8497 30.608ZM69.7912 26.96C69.7912 27.168 69.7792 27.388 69.7552 27.62H64.4992C64.5392 28.268 64.7592 28.776 65.1592 29.144C65.5672 29.504 66.0592 29.684 66.6352 29.684C67.1072 29.684 67.4992 29.576 67.8112 29.36C68.1312 29.136 68.3552 28.84 68.4832 28.472H69.6592C69.4832 29.104 69.1312 29.62 68.6032 30.02C68.0752 30.412 67.4192 30.608 66.6352 30.608C66.0112 30.608 65.4512 30.468 64.9552 30.188C64.4672 29.908 64.0832 29.512 63.8032 29C63.5232 28.48 63.3832 27.88 63.3832 27.2C63.3832 26.52 63.5192 25.924 63.7912 25.412C64.0632 24.9 64.4432 24.508 64.9312 24.236C65.4272 23.956 65.9952 23.816 66.6352 23.816C67.2592 23.816 67.8112 23.952 68.2912 24.224C68.7712 24.496 69.1392 24.872 69.3952 25.352C69.6592 25.824 69.7912 26.36 69.7912 26.96ZM68.6632 26.732C68.6632 26.316 68.5712 25.96 68.3872 25.664C68.2032 25.36 67.9512 25.132 67.6312 24.98C67.3192 24.82 66.9712 24.74 66.5872 24.74C66.0352 24.74 65.5632 24.916 65.1712 25.268C64.7872 25.62 64.5672 26.108 64.5112 26.732H68.6632ZM72.3246 24.992C72.5166 24.616 72.7886 24.324 73.1406 24.116C73.5006 23.908 73.9366 23.804 74.4486 23.804V24.932H74.1606C72.9366 24.932 72.3246 25.596 72.3246 26.924V30.5H71.2326V23.924H72.3246V24.992ZM78.9132 23.804C79.7132 23.804 80.3612 24.048 80.8572 24.536C81.3532 25.016 81.6012 25.712 81.6012 26.624V30.5H80.5212V26.78C80.5212 26.124 80.3572 25.624 80.0292 25.28C79.7012 24.928 79.2532 24.752 78.6852 24.752C78.1092 24.752 77.6492 24.932 77.3052 25.292C76.9692 25.652 76.8012 26.176 76.8012 26.864V30.5H75.7092V23.924H76.8012V24.86C77.0172 24.524 77.3092 24.264 77.6772 24.08C78.0532 23.896 78.4652 23.804 78.9132 23.804ZM82.9769 27.188C82.9769 26.516 83.1129 25.928 83.3849 25.424C83.6569 24.912 84.0289 24.516 84.5009 24.236C84.9809 23.956 85.5129 23.816 86.0969 23.816C86.6729 23.816 87.1729 23.94 87.5969 24.188C88.0209 24.436 88.3369 24.748 88.5449 25.124V23.924H89.6489V30.5H88.5449V29.276C88.3289 29.66 88.0049 29.98 87.5729 30.236C87.1489 30.484 86.6529 30.608 86.0849 30.608C85.5009 30.608 84.9729 30.464 84.5009 30.176C84.0289 29.888 83.6569 29.484 83.3849 28.964C83.1129 28.444 82.9769 27.852 82.9769 27.188ZM88.5449 27.2C88.5449 26.704 88.4449 26.272 88.2449 25.904C88.0449 25.536 87.7729 25.256 87.4289 25.064C87.0929 24.864 86.7209 24.764 86.3129 24.764C85.9049 24.764 85.5329 24.86 85.1969 25.052C84.8609 25.244 84.5929 25.524 84.3929 25.892C84.1929 26.26 84.0929 26.692 84.0929 27.188C84.0929 27.692 84.1929 28.132 84.3929 28.508C84.5929 28.876 84.8609 29.16 85.1969 29.36C85.5329 29.552 85.9049 29.648 86.3129 29.648C86.7209 29.648 87.0929 29.552 87.4289 29.36C87.7729 29.16 88.0449 28.876 88.2449 28.508C88.4449 28.132 88.5449 27.696 88.5449 27.2ZM99.4023 23.804C99.9143 23.804 100.37 23.912 100.77 24.128C101.17 24.336 101.486 24.652 101.718 25.076C101.95 25.5 102.066 26.016 102.066 26.624V30.5H100.986V26.78C100.986 26.124 100.822 25.624 100.494 25.28C100.174 24.928 99.7383 24.752 99.1863 24.752C98.6183 24.752 98.1663 24.936 97.8303 25.304C97.4943 25.664 97.3263 26.188 97.3263 26.876V30.5H96.2463V26.78C96.2463 26.124 96.0823 25.624 95.7543 25.28C95.4343 24.928 94.9983 24.752 94.4463 24.752C93.8783 24.752 93.4263 24.936 93.0903 25.304C92.7543 25.664 92.5863 26.188 92.5863 26.876V30.5H91.4943V23.924H92.5863V24.872C92.8023 24.528 93.0903 24.264 93.4503 24.08C93.8183 23.896 94.2223 23.804 94.6623 23.804C95.2143 23.804 95.7023 23.928 96.1263 24.176C96.5503 24.424 96.8663 24.788 97.0743 25.268C97.2583 24.804 97.5623 24.444 97.9863 24.188C98.4103 23.932 98.8823 23.804 99.4023 23.804ZM109.858 26.96C109.858 27.168 109.846 27.388 109.822 27.62H104.566C104.606 28.268 104.826 28.776 105.226 29.144C105.634 29.504 106.126 29.684 106.702 29.684C107.174 29.684 107.566 29.576 107.878 29.36C108.198 29.136 108.422 28.84 108.55 28.472H109.726C109.55 29.104 109.198 29.62 108.67 30.02C108.142 30.412 107.486 30.608 106.702 30.608C106.078 30.608 105.518 30.468 105.022 30.188C104.534 29.908 104.15 29.512 103.87 29C103.59 28.48 103.45 27.88 103.45 27.2C103.45 26.52 103.586 25.924 103.858 25.412C104.13 24.9 104.51 24.508 104.998 24.236C105.494 23.956 106.062 23.816 106.702 23.816C107.326 23.816 107.878 23.952 108.358 24.224C108.838 24.496 109.206 24.872 109.462 25.352C109.726 25.824 109.858 26.36 109.858 26.96ZM108.73 26.732C108.73 26.316 108.638 25.96 108.454 25.664C108.27 25.36 108.018 25.132 107.698 24.98C107.386 24.82 107.038 24.74 106.654 24.74C106.102 24.74 105.63 24.916 105.238 25.268C104.854 25.62 104.634 26.108 104.578 26.732H108.73Z" fill="#1C1C1C"/>
<path d="M38.5 36.5H36.5V34.5C36.5 32.8431 35.1569 31.5 33.5 31.5H27.5C25.8432 31.5 24.5 32.8431 24.5 34.5V36.5H22.5V34.5C22.5 31.7386 24.7386 29.5 27.5 29.5H33.5C36.2614 29.5 38.5 31.7386 38.5 34.5V36.5ZM30.5 27.5C27.1863 27.5 24.5 24.8137 24.5 21.5C24.5 18.1863 27.1863 15.5 30.5 15.5C33.8137 15.5 36.5 18.1863 36.5 21.5C36.5 24.8137 33.8137 27.5 30.5 27.5ZM30.5 25.5C32.7091 25.5 34.5 23.7091 34.5 21.5C34.5 19.2909 32.7091 17.5 30.5 17.5C28.2909 17.5 26.5 19.2909 26.5 21.5C26.5 23.7091 28.2909 25.5 30.5 25.5Z" fill="#1C1C1C"/>
</svg>
