<svg width="523" height="473" viewBox="0 0 523 473" fill="none" xmlns="http://www.w3.org/2000/svg">
<g filter="url(#filter0_d_46_191)">
<rect x="8" y="40" width="507" height="421" rx="34" fill="#F2F2F2"/>
</g>
<path d="M25.075 19.275C25.075 17.575 25.4583 16.05 26.225 14.7C26.9917 13.3333 28.0333 12.2667 29.35 11.5C30.6833 10.7333 32.1583 10.35 33.775 10.35C35.675 10.35 37.3333 10.8083 38.75 11.725C40.1667 12.6417 41.2 13.9417 41.85 15.625H39.125C38.6417 14.575 37.9417 13.7667 37.025 13.2C36.125 12.6333 35.0417 12.35 33.775 12.35C32.5583 12.35 31.4667 12.6333 30.5 13.2C29.5333 13.7667 28.775 14.575 28.225 15.625C27.675 16.6583 27.4 17.875 27.4 19.275C27.4 20.6583 27.675 21.875 28.225 22.925C28.775 23.9583 29.5333 24.7583 30.5 25.325C31.4667 25.8917 32.5583 26.175 33.775 26.175C35.0417 26.175 36.125 25.9 37.025 25.35C37.9417 24.7833 38.6417 23.975 39.125 22.925H41.85C41.2 24.5917 40.1667 25.8833 38.75 26.8C37.3333 27.7 35.675 28.15 33.775 28.15C32.1583 28.15 30.6833 27.775 29.35 27.025C28.0333 26.2583 26.9917 25.2 26.225 23.85C25.4583 22.5 25.075 20.975 25.075 19.275ZM44.3865 21.1C44.3865 19.7 44.6699 18.475 45.2365 17.425C45.8032 16.3583 46.5782 15.5333 47.5615 14.95C48.5615 14.3667 49.6699 14.075 50.8865 14.075C52.0865 14.075 53.1282 14.3333 54.0115 14.85C54.8949 15.3667 55.5532 16.0167 55.9865 16.8V14.3H58.2865V28H55.9865V25.45C55.5365 26.25 54.8615 26.9167 53.9615 27.45C53.0782 27.9667 52.0449 28.225 50.8615 28.225C49.6449 28.225 48.5449 27.925 47.5615 27.325C46.5782 26.725 45.8032 25.8833 45.2365 24.8C44.6699 23.7167 44.3865 22.4833 44.3865 21.1ZM55.9865 21.125C55.9865 20.0917 55.7782 19.1917 55.3615 18.425C54.9449 17.6583 54.3782 17.075 53.6615 16.675C52.9615 16.2583 52.1865 16.05 51.3365 16.05C50.4865 16.05 49.7115 16.25 49.0115 16.65C48.3115 17.05 47.7532 17.6333 47.3365 18.4C46.9199 19.1667 46.7115 20.0667 46.7115 21.1C46.7115 22.15 46.9199 23.0667 47.3365 23.85C47.7532 24.6167 48.3115 25.2083 49.0115 25.625C49.7115 26.025 50.4865 26.225 51.3365 26.225C52.1865 26.225 52.9615 26.025 53.6615 25.625C54.3782 25.2083 54.9449 24.6167 55.3615 23.85C55.7782 23.0667 55.9865 22.1583 55.9865 21.125ZM64.4061 9.5V28H62.1311V9.5H64.4061ZM80.7834 20.625C80.7834 21.0583 80.7584 21.5167 80.7084 22H69.7584C69.8417 23.35 70.3001 24.4083 71.1334 25.175C71.9834 25.925 73.0084 26.3 74.2084 26.3C75.1917 26.3 76.0084 26.075 76.6584 25.625C77.3251 25.1583 77.7917 24.5417 78.0584 23.775H80.5084C80.1417 25.0917 79.4084 26.1667 78.3084 27C77.2084 27.8167 75.8417 28.225 74.2084 28.225C72.9084 28.225 71.7417 27.9333 70.7084 27.35C69.6917 26.7667 68.8917 25.9417 68.3084 24.875C67.7251 23.7917 67.4334 22.5417 67.4334 21.125C67.4334 19.7083 67.7167 18.4667 68.2834 17.4C68.8501 16.3333 69.6417 15.5167 70.6584 14.95C71.6917 14.3667 72.8751 14.075 74.2084 14.075C75.5084 14.075 76.6584 14.3583 77.6584 14.925C78.6584 15.4917 79.4251 16.275 79.9584 17.275C80.5084 18.2583 80.7834 19.375 80.7834 20.625ZM78.4334 20.15C78.4334 19.2833 78.2417 18.5417 77.8584 17.925C77.4751 17.2917 76.9501 16.8167 76.2834 16.5C75.6334 16.1667 74.9084 16 74.1084 16C72.9584 16 71.9751 16.3667 71.1584 17.1C70.3584 17.8333 69.9001 18.85 69.7834 20.15H78.4334ZM90.4613 14.05C92.128 14.05 93.478 14.5583 94.5113 15.575C95.5447 16.575 96.0613 18.025 96.0613 19.925V28H93.8113V20.25C93.8113 18.8833 93.4697 17.8417 92.7863 17.125C92.103 16.3917 91.1697 16.025 89.9863 16.025C88.7863 16.025 87.828 16.4 87.1113 17.15C86.4113 17.9 86.0613 18.9917 86.0613 20.425V28H83.7863V14.3H86.0613V16.25C86.5113 15.55 87.1197 15.0083 87.8863 14.625C88.6697 14.2417 89.528 14.05 90.4613 14.05ZM98.9275 21.1C98.9275 19.7 99.2109 18.475 99.7775 17.425C100.344 16.3583 101.119 15.5333 102.103 14.95C103.103 14.3667 104.219 14.075 105.453 14.075C106.519 14.075 107.511 14.325 108.428 14.825C109.344 15.3083 110.044 15.95 110.528 16.75V9.5H112.828V28H110.528V25.425C110.078 26.2417 109.411 26.9167 108.528 27.45C107.644 27.9667 106.611 28.225 105.428 28.225C104.211 28.225 103.103 27.925 102.103 27.325C101.119 26.725 100.344 25.8833 99.7775 24.8C99.2109 23.7167 98.9275 22.4833 98.9275 21.1ZM110.528 21.125C110.528 20.0917 110.319 19.1917 109.903 18.425C109.486 17.6583 108.919 17.075 108.203 16.675C107.503 16.2583 106.728 16.05 105.878 16.05C105.028 16.05 104.253 16.25 103.553 16.65C102.853 17.05 102.294 17.6333 101.878 18.4C101.461 19.1667 101.253 20.0667 101.253 21.1C101.253 22.15 101.461 23.0667 101.878 23.85C102.294 24.6167 102.853 25.2083 103.553 25.625C104.253 26.025 105.028 26.225 105.878 26.225C106.728 26.225 107.503 26.025 108.203 25.625C108.919 25.2083 109.486 24.6167 109.903 23.85C110.319 23.0667 110.528 22.1583 110.528 21.125ZM115.822 21.1C115.822 19.7 116.105 18.475 116.672 17.425C117.239 16.3583 118.014 15.5333 118.997 14.95C119.997 14.3667 121.105 14.075 122.322 14.075C123.522 14.075 124.564 14.3333 125.447 14.85C126.33 15.3667 126.989 16.0167 127.422 16.8V14.3H129.722V28H127.422V25.45C126.972 26.25 126.297 26.9167 125.397 27.45C124.514 27.9667 123.48 28.225 122.297 28.225C121.08 28.225 119.98 27.925 118.997 27.325C118.014 26.725 117.239 25.8833 116.672 24.8C116.105 23.7167 115.822 22.4833 115.822 21.1ZM127.422 21.125C127.422 20.0917 127.214 19.1917 126.797 18.425C126.38 17.6583 125.814 17.075 125.097 16.675C124.397 16.2583 123.622 16.05 122.772 16.05C121.922 16.05 121.147 16.25 120.447 16.65C119.747 17.05 119.189 17.6333 118.772 18.4C118.355 19.1667 118.147 20.0667 118.147 21.1C118.147 22.15 118.355 23.0667 118.772 23.85C119.189 24.6167 119.747 25.2083 120.447 25.625C121.147 26.025 121.922 26.225 122.772 26.225C123.622 26.225 124.397 26.025 125.097 25.625C125.814 25.2083 126.38 24.6167 126.797 23.85C127.214 23.0667 127.422 22.1583 127.422 21.125ZM135.842 16.525C136.242 15.7417 136.808 15.1333 137.542 14.7C138.292 14.2667 139.2 14.05 140.267 14.05V16.4H139.667C137.117 16.4 135.842 17.7833 135.842 20.55V28H133.567V14.3H135.842V16.525Z" fill="#1C1C1C"/>
<defs>
<filter id="filter0_d_46_191" x="0" y="36" width="523" height="437" filterUnits="userSpaceOnUse" color-interpolation-filters="sRGB">
<feFlood flood-opacity="0" result="BackgroundImageFix"/>
<feColorMatrix in="SourceAlpha" type="matrix" values="0 0 0 0 0 0 0 0 0 0 0 0 0 0 0 0 0 0 127 0" result="hardAlpha"/>
<feOffset dy="4"/>
<feGaussianBlur stdDeviation="4"/>
<feColorMatrix type="matrix" values="0 0 0 0 0 0 0 0 0 0 0 0 0 0 0 0 0 0 0.1 0"/>
<feBlend mode="normal" in2="BackgroundImageFix" result="effect1_dropShadow_46_191"/>
<feBlend mode="normal" in="SourceGraphic" in2="effect1_dropShadow_46_191" result="shape"/>
</filter>
</defs>
</svg>
