<svg width="91" height="33" viewBox="0 0 91 33" fill="none" xmlns="http://www.w3.org/2000/svg">
<g filter="url(#filter0_d_46_181)">
<path d="M7.2 16.15H13.3V18H4.925V0.574999H7.2V16.15ZM21.691 18.225C20.4077 18.225 19.241 17.9333 18.191 17.35C17.1577 16.7667 16.341 15.9417 15.741 14.875C15.1577 13.7917 14.866 12.5417 14.866 11.125C14.866 9.725 15.166 8.49167 15.766 7.425C16.3827 6.34167 17.216 5.51667 18.266 4.95C19.316 4.36667 20.491 4.075 21.791 4.075C23.091 4.075 24.266 4.36667 25.316 4.95C26.366 5.51667 27.191 6.33333 27.791 7.4C28.4077 8.46667 28.716 9.70833 28.716 11.125C28.716 12.5417 28.3993 13.7917 27.766 14.875C27.1493 15.9417 26.3077 16.7667 25.241 17.35C24.1743 17.9333 22.991 18.225 21.691 18.225ZM21.691 16.225C22.5077 16.225 23.2743 16.0333 23.991 15.65C24.7077 15.2667 25.2827 14.6917 25.716 13.925C26.166 13.1583 26.391 12.225 26.391 11.125C26.391 10.025 26.1743 9.09167 25.741 8.325C25.3077 7.55833 24.741 6.99167 24.041 6.625C23.341 6.24167 22.5827 6.05 21.766 6.05C20.9327 6.05 20.166 6.24167 19.466 6.625C18.7827 6.99167 18.2327 7.55833 17.816 8.325C17.3993 9.09167 17.191 10.025 17.191 11.125C17.191 12.2417 17.391 13.1833 17.791 13.95C18.2077 14.7167 18.7577 15.2917 19.441 15.675C20.1243 16.0417 20.8743 16.225 21.691 16.225ZM37.3572 4.075C38.5406 4.075 39.5739 4.33333 40.4572 4.85C41.3572 5.36667 42.0239 6.01667 42.4572 6.8V4.3H44.7572V18.3C44.7572 19.55 44.4906 20.6583 43.9572 21.625C43.4239 22.6083 42.6572 23.375 41.6572 23.925C40.6739 24.475 39.5239 24.75 38.2072 24.75C36.4072 24.75 34.9072 24.325 33.7072 23.475C32.5072 22.625 31.7989 21.4667 31.5822 20H33.8322C34.0822 20.8333 34.5989 21.5 35.3822 22C36.1656 22.5167 37.1072 22.775 38.2072 22.775C39.4572 22.775 40.4739 22.3833 41.2572 21.6C42.0572 20.8167 42.4572 19.7167 42.4572 18.3V15.425C42.0072 16.225 41.3406 16.8917 40.4572 17.425C39.5739 17.9583 38.5406 18.225 37.3572 18.225C36.1406 18.225 35.0322 17.925 34.0322 17.325C33.0489 16.725 32.2739 15.8833 31.7072 14.8C31.1406 13.7167 30.8572 12.4833 30.8572 11.1C30.8572 9.7 31.1406 8.475 31.7072 7.425C32.2739 6.35833 33.0489 5.53333 34.0322 4.95C35.0322 4.36667 36.1406 4.075 37.3572 4.075ZM42.4572 11.125C42.4572 10.0917 42.2489 9.19167 41.8322 8.425C41.4156 7.65833 40.8489 7.075 40.1322 6.675C39.4322 6.25833 38.6572 6.05 37.8072 6.05C36.9572 6.05 36.1822 6.25 35.4822 6.65C34.7822 7.05 34.2239 7.63333 33.8072 8.4C33.3906 9.16667 33.1822 10.0667 33.1822 11.1C33.1822 12.15 33.3906 13.0667 33.8072 13.85C34.2239 14.6167 34.7822 15.2083 35.4822 15.625C36.1822 16.025 36.9572 16.225 37.8072 16.225C38.6572 16.225 39.4322 16.025 40.1322 15.625C40.8489 15.2083 41.4156 14.6167 41.8322 13.85C42.2489 13.0667 42.4572 12.1583 42.4572 11.125ZM54.5768 18.225C53.2934 18.225 52.1268 17.9333 51.0768 17.35C50.0434 16.7667 49.2268 15.9417 48.6268 14.875C48.0434 13.7917 47.7518 12.5417 47.7518 11.125C47.7518 9.725 48.0518 8.49167 48.6518 7.425C49.2684 6.34167 50.1018 5.51667 51.1518 4.95C52.2018 4.36667 53.3768 4.075 54.6768 4.075C55.9768 4.075 57.1518 4.36667 58.2018 4.95C59.2518 5.51667 60.0768 6.33333 60.6768 7.4C61.2934 8.46667 61.6018 9.70833 61.6018 11.125C61.6018 12.5417 61.2851 13.7917 60.6518 14.875C60.0351 15.9417 59.1934 16.7667 58.1268 17.35C57.0601 17.9333 55.8768 18.225 54.5768 18.225ZM54.5768 16.225C55.3934 16.225 56.1601 16.0333 56.8768 15.65C57.5934 15.2667 58.1684 14.6917 58.6018 13.925C59.0518 13.1583 59.2768 12.225 59.2768 11.125C59.2768 10.025 59.0601 9.09167 58.6268 8.325C58.1934 7.55833 57.6268 6.99167 56.9268 6.625C56.2268 6.24167 55.4684 6.05 54.6518 6.05C53.8184 6.05 53.0518 6.24167 52.3518 6.625C51.6684 6.99167 51.1184 7.55833 50.7018 8.325C50.2851 9.09167 50.0768 10.025 50.0768 11.125C50.0768 12.2417 50.2768 13.1833 50.6768 13.95C51.0934 14.7167 51.6434 15.2917 52.3268 15.675C53.0101 16.0417 53.7601 16.225 54.5768 16.225ZM76.743 4.3V18H74.468V15.975C74.0346 16.675 73.4263 17.225 72.643 17.625C71.8763 18.0083 71.0263 18.2 70.093 18.2C69.0263 18.2 68.068 17.9833 67.218 17.55C66.368 17.1 65.693 16.4333 65.193 15.55C64.7096 14.6667 64.468 13.5917 64.468 12.325V4.3H66.718V12.025C66.718 13.375 67.0596 14.4167 67.743 15.15C68.4263 15.8667 69.3596 16.225 70.543 16.225C71.7596 16.225 72.718 15.85 73.418 15.1C74.118 14.35 74.468 13.2583 74.468 11.825V4.3H76.743ZM83.3592 6.175V14.25C83.3592 14.9167 83.5008 15.3917 83.7842 15.675C84.0675 15.9417 84.5592 16.075 85.2592 16.075H86.9342V18H84.8842C83.6175 18 82.6675 17.7083 82.0342 17.125C81.4008 16.5417 81.0842 15.5833 81.0842 14.25V6.175H79.3092V4.3H81.0842V0.849999H83.3592V4.3H86.9342V6.175H83.3592Z" fill="#1C1C1C"/>
</g>
<defs>
<filter id="filter0_d_46_181" x="0.925049" y="0.575012" width="90.009" height="32.175" filterUnits="userSpaceOnUse" color-interpolation-filters="sRGB">
<feFlood flood-opacity="0" result="BackgroundImageFix"/>
<feColorMatrix in="SourceAlpha" type="matrix" values="0 0 0 0 0 0 0 0 0 0 0 0 0 0 0 0 0 0 127 0" result="hardAlpha"/>
<feOffset dy="4"/>
<feGaussianBlur stdDeviation="2"/>
<feComposite in2="hardAlpha" operator="out"/>
<feColorMatrix type="matrix" values="0 0 0 0 0 0 0 0 0 0 0 0 0 0 0 0 0 0 0.25 0"/>
<feBlend mode="normal" in2="BackgroundImageFix" result="effect1_dropShadow_46_181"/>
<feBlend mode="normal" in="SourceGraphic" in2="effect1_dropShadow_46_181" result="shape"/>
</filter>
</defs>
</svg>
