<svg width="100" height="25" viewBox="0 0 100 25" fill="none" xmlns="http://www.w3.org/2000/svg">
<path d="M18.6 0.699999V18H16.325V5.1L10.575 18H8.975L3.2 5.075V18H0.925V0.699999H3.375L9.775 15L16.175 0.699999H18.6ZM34.2582 4.3L26.0082 24.45H23.6582L26.3582 17.85L20.8332 4.3H23.3582L27.6582 15.4L31.9082 4.3H34.2582ZM38.8201 6.825C39.2701 6.04167 39.9368 5.39167 40.8201 4.875C41.7201 4.34167 42.7618 4.075 43.9451 4.075C45.1618 4.075 46.2618 4.36667 47.2451 4.95C48.2451 5.53333 49.0285 6.35833 49.5951 7.425C50.1618 8.475 50.4451 9.7 50.4451 11.1C50.4451 12.4833 50.1618 13.7167 49.5951 14.8C49.0285 15.8833 48.2451 16.725 47.2451 17.325C46.2618 17.925 45.1618 18.225 43.9451 18.225C42.7785 18.225 41.7451 17.9667 40.8451 17.45C39.9618 16.9167 39.2868 16.2583 38.8201 15.475V24.5H36.5451V4.3H38.8201V6.825ZM48.1201 11.1C48.1201 10.0667 47.9118 9.16667 47.4951 8.4C47.0785 7.63333 46.5118 7.05 45.7951 6.65C45.0951 6.25 44.3201 6.05 43.4701 6.05C42.6368 6.05 41.8618 6.25833 41.1451 6.675C40.4451 7.075 39.8785 7.66667 39.4451 8.45C39.0285 9.21667 38.8201 10.1083 38.8201 11.125C38.8201 12.1583 39.0285 13.0667 39.4451 13.85C39.8785 14.6167 40.4451 15.2083 41.1451 15.625C41.8618 16.025 42.6368 16.225 43.4701 16.225C44.3201 16.225 45.0951 16.025 45.7951 15.625C46.5118 15.2083 47.0785 14.6167 47.4951 13.85C47.9118 13.0667 48.1201 12.15 48.1201 11.1ZM52.5896 11.1C52.5896 9.7 52.873 8.475 53.4396 7.425C54.0063 6.35833 54.7813 5.53333 55.7646 4.95C56.7646 4.36667 57.873 4.075 59.0896 4.075C60.2896 4.075 61.3313 4.33333 62.2146 4.85C63.098 5.36667 63.7563 6.01667 64.1896 6.8V4.3H66.4896V18H64.1896V15.45C63.7396 16.25 63.0646 16.9167 62.1646 17.45C61.2813 17.9667 60.248 18.225 59.0646 18.225C57.848 18.225 56.748 17.925 55.7646 17.325C54.7813 16.725 54.0063 15.8833 53.4396 14.8C52.873 13.7167 52.5896 12.4833 52.5896 11.1ZM64.1896 11.125C64.1896 10.0917 63.9813 9.19167 63.5646 8.425C63.148 7.65833 62.5813 7.075 61.8646 6.675C61.1646 6.25833 60.3896 6.05 59.5396 6.05C58.6896 6.05 57.9146 6.25 57.2146 6.65C56.5146 7.05 55.9563 7.63333 55.5396 8.4C55.123 9.16667 54.9146 10.0667 54.9146 11.1C54.9146 12.15 55.123 13.0667 55.5396 13.85C55.9563 14.6167 56.5146 15.2083 57.2146 15.625C57.9146 16.025 58.6896 16.225 59.5396 16.225C60.3896 16.225 61.1646 16.025 61.8646 15.625C62.5813 15.2083 63.148 14.6167 63.5646 13.85C63.9813 13.0667 64.1896 12.1583 64.1896 11.125ZM75.9842 4.075C77.1675 4.075 78.2008 4.33333 79.0842 4.85C79.9842 5.36667 80.6508 6.01667 81.0842 6.8V4.3H83.3842V18.3C83.3842 19.55 83.1175 20.6583 82.5842 21.625C82.0508 22.6083 81.2842 23.375 80.2842 23.925C79.3008 24.475 78.1508 24.75 76.8342 24.75C75.0342 24.75 73.5342 24.325 72.3342 23.475C71.1342 22.625 70.4258 21.4667 70.2092 20H72.4592C72.7092 20.8333 73.2258 21.5 74.0092 22C74.7925 22.5167 75.7342 22.775 76.8342 22.775C78.0842 22.775 79.1008 22.3833 79.8842 21.6C80.6842 20.8167 81.0842 19.7167 81.0842 18.3V15.425C80.6342 16.225 79.9675 16.8917 79.0842 17.425C78.2008 17.9583 77.1675 18.225 75.9842 18.225C74.7675 18.225 73.6592 17.925 72.6592 17.325C71.6758 16.725 70.9008 15.8833 70.3342 14.8C69.7675 13.7167 69.4842 12.4833 69.4842 11.1C69.4842 9.7 69.7675 8.475 70.3342 7.425C70.9008 6.35833 71.6758 5.53333 72.6592 4.95C73.6592 4.36667 74.7675 4.075 75.9842 4.075ZM81.0842 11.125C81.0842 10.0917 80.8758 9.19167 80.4592 8.425C80.0425 7.65833 79.4758 7.075 78.7592 6.675C78.0592 6.25833 77.2842 6.05 76.4342 6.05C75.5842 6.05 74.8092 6.25 74.1092 6.65C73.4092 7.05 72.8508 7.63333 72.4342 8.4C72.0175 9.16667 71.8092 10.0667 71.8092 11.1C71.8092 12.15 72.0175 13.0667 72.4342 13.85C72.8508 14.6167 73.4092 15.2083 74.1092 15.625C74.8092 16.025 75.5842 16.225 76.4342 16.225C77.2842 16.225 78.0592 16.025 78.7592 15.625C79.4758 15.2083 80.0425 14.6167 80.4592 13.85C80.8758 13.0667 81.0842 12.1583 81.0842 11.125ZM99.7287 10.625C99.7287 11.0583 99.7037 11.5167 99.6537 12H88.7037C88.787 13.35 89.2454 14.4083 90.0787 15.175C90.9287 15.925 91.9537 16.3 93.1537 16.3C94.137 16.3 94.9537 16.075 95.6037 15.625C96.2704 15.1583 96.737 14.5417 97.0037 13.775H99.4537C99.087 15.0917 98.3537 16.1667 97.2537 17C96.1537 17.8167 94.787 18.225 93.1537 18.225C91.8537 18.225 90.687 17.9333 89.6537 17.35C88.637 16.7667 87.837 15.9417 87.2537 14.875C86.6704 13.7917 86.3787 12.5417 86.3787 11.125C86.3787 9.70833 86.662 8.46667 87.2287 7.4C87.7954 6.33333 88.587 5.51667 89.6037 4.95C90.637 4.36667 91.8204 4.075 93.1537 4.075C94.4537 4.075 95.6037 4.35833 96.6037 4.925C97.6037 5.49167 98.3704 6.275 98.9037 7.275C99.4537 8.25833 99.7287 9.375 99.7287 10.625ZM97.3787 10.15C97.3787 9.28333 97.187 8.54167 96.8037 7.925C96.4204 7.29167 95.8954 6.81667 95.2287 6.5C94.5787 6.16667 93.8537 6 93.0537 6C91.9037 6 90.9204 6.36667 90.1037 7.1C89.3037 7.83333 88.8454 8.85 88.7287 10.15H97.3787Z" fill="#1C1C1C"/>
</svg>
