<svg width="523" height="473" viewBox="0 0 523 473" fill="none" xmlns="http://www.w3.org/2000/svg">
<g filter="url(#filter0_d_46_190)">
<rect x="8" y="40" width="507" height="421" rx="34" fill="#F2F2F2"/>
</g>
<path d="M36.65 10.575V12.425H31.9V28H29.625V12.425H24.85V10.575H36.65ZM45.4254 28.225C44.1421 28.225 42.9754 27.9333 41.9254 27.35C40.8921 26.7667 40.0754 25.9417 39.4754 24.875C38.8921 23.7917 38.6004 22.5417 38.6004 21.125C38.6004 19.725 38.9004 18.4917 39.5004 17.425C40.1171 16.3417 40.9504 15.5167 42.0004 14.95C43.0504 14.3667 44.2254 14.075 45.5254 14.075C46.8254 14.075 48.0004 14.3667 49.0504 14.95C50.1004 15.5167 50.9254 16.3333 51.5254 17.4C52.1421 18.4667 52.4504 19.7083 52.4504 21.125C52.4504 22.5417 52.1337 23.7917 51.5004 24.875C50.8837 25.9417 50.0421 26.7667 48.9754 27.35C47.9087 27.9333 46.7254 28.225 45.4254 28.225ZM45.4254 26.225C46.2421 26.225 47.0087 26.0333 47.7254 25.65C48.4421 25.2667 49.0171 24.6917 49.4504 23.925C49.9004 23.1583 50.1254 22.225 50.1254 21.125C50.1254 20.025 49.9087 19.0917 49.4754 18.325C49.0421 17.5583 48.4754 16.9917 47.7754 16.625C47.0754 16.2417 46.3171 16.05 45.5004 16.05C44.6671 16.05 43.9004 16.2417 43.2004 16.625C42.5171 16.9917 41.9671 17.5583 41.5504 18.325C41.1337 19.0917 40.9254 20.025 40.9254 21.125C40.9254 22.2417 41.1254 23.1833 41.5254 23.95C41.9421 24.7167 42.4921 25.2917 43.1754 25.675C43.8587 26.0417 44.6087 26.225 45.4254 26.225ZM61.2566 21.1C61.2566 19.7 61.54 18.475 62.1066 17.425C62.6733 16.3583 63.4483 15.5333 64.4316 14.95C65.4316 14.3667 66.5483 14.075 67.7816 14.075C68.8483 14.075 69.84 14.325 70.7566 14.825C71.6733 15.3083 72.3733 15.95 72.8566 16.75V9.5H75.1566V28H72.8566V25.425C72.4066 26.2417 71.74 26.9167 70.8566 27.45C69.9733 27.9667 68.94 28.225 67.7566 28.225C66.54 28.225 65.4316 27.925 64.4316 27.325C63.4483 26.725 62.6733 25.8833 62.1066 24.8C61.54 23.7167 61.2566 22.4833 61.2566 21.1ZM72.8566 21.125C72.8566 20.0917 72.6483 19.1917 72.2316 18.425C71.815 17.6583 71.2483 17.075 70.5316 16.675C69.8316 16.2583 69.0566 16.05 68.2066 16.05C67.3566 16.05 66.5816 16.25 65.8816 16.65C65.1816 17.05 64.6233 17.6333 64.2066 18.4C63.79 19.1667 63.5816 20.0667 63.5816 21.1C63.5816 22.15 63.79 23.0667 64.2066 23.85C64.6233 24.6167 65.1816 25.2083 65.8816 25.625C66.5816 26.025 67.3566 26.225 68.2066 26.225C69.0566 26.225 69.8316 26.025 70.5316 25.625C71.2483 25.2083 71.815 24.6167 72.2316 23.85C72.6483 23.0667 72.8566 22.1583 72.8566 21.125ZM84.9762 28.225C83.6928 28.225 82.5262 27.9333 81.4762 27.35C80.4428 26.7667 79.6262 25.9417 79.0262 24.875C78.4428 23.7917 78.1512 22.5417 78.1512 21.125C78.1512 19.725 78.4512 18.4917 79.0512 17.425C79.6678 16.3417 80.5012 15.5167 81.5512 14.95C82.6012 14.3667 83.7762 14.075 85.0762 14.075C86.3762 14.075 87.5512 14.3667 88.6012 14.95C89.6512 15.5167 90.4762 16.3333 91.0762 17.4C91.6928 18.4667 92.0012 19.7083 92.0012 21.125C92.0012 22.5417 91.6845 23.7917 91.0512 24.875C90.4345 25.9417 89.5928 26.7667 88.5262 27.35C87.4595 27.9333 86.2762 28.225 84.9762 28.225ZM84.9762 26.225C85.7928 26.225 86.5595 26.0333 87.2762 25.65C87.9928 25.2667 88.5678 24.6917 89.0012 23.925C89.4512 23.1583 89.6762 22.225 89.6762 21.125C89.6762 20.025 89.4595 19.0917 89.0262 18.325C88.5928 17.5583 88.0262 16.9917 87.3262 16.625C86.6262 16.2417 85.8678 16.05 85.0512 16.05C84.2178 16.05 83.4512 16.2417 82.7512 16.625C82.0678 16.9917 81.5178 17.5583 81.1012 18.325C80.6845 19.0917 80.4762 20.025 80.4762 21.125C80.4762 22.2417 80.6762 23.1833 81.0762 23.95C81.4928 24.7167 82.0428 25.2917 82.7262 25.675C83.4095 26.0417 84.1595 26.225 84.9762 26.225ZM103.932 9.5V28H101.657V9.5H103.932ZM108.985 12.075C108.551 12.075 108.185 11.925 107.885 11.625C107.585 11.325 107.435 10.9583 107.435 10.525C107.435 10.0917 107.585 9.725 107.885 9.425C108.185 9.125 108.551 8.975 108.985 8.975C109.401 8.975 109.751 9.125 110.035 9.425C110.335 9.725 110.485 10.0917 110.485 10.525C110.485 10.9583 110.335 11.325 110.035 11.625C109.751 11.925 109.401 12.075 108.985 12.075ZM110.085 14.3V28H107.81V14.3H110.085ZM118.812 28.225C117.762 28.225 116.82 28.05 115.987 27.7C115.154 27.3333 114.495 26.8333 114.012 26.2C113.529 25.55 113.262 24.8083 113.212 23.975H115.562C115.629 24.6583 115.945 25.2167 116.512 25.65C117.095 26.0833 117.854 26.3 118.787 26.3C119.654 26.3 120.337 26.1083 120.837 25.725C121.337 25.3417 121.587 24.8583 121.587 24.275C121.587 23.675 121.32 23.2333 120.787 22.95C120.254 22.65 119.429 22.3583 118.312 22.075C117.295 21.8083 116.462 21.5417 115.812 21.275C115.179 20.9917 114.629 20.5833 114.162 20.05C113.712 19.5 113.487 18.7833 113.487 17.9C113.487 17.2 113.695 16.5583 114.112 15.975C114.529 15.3917 115.12 14.9333 115.887 14.6C116.654 14.25 117.529 14.075 118.512 14.075C120.029 14.075 121.254 14.4583 122.187 15.225C123.12 15.9917 123.62 17.0417 123.687 18.375H121.412C121.362 17.6583 121.07 17.0833 120.537 16.65C120.02 16.2167 119.32 16 118.437 16C117.62 16 116.97 16.175 116.487 16.525C116.004 16.875 115.762 17.3333 115.762 17.9C115.762 18.35 115.904 18.725 116.187 19.025C116.487 19.3083 116.854 19.5417 117.287 19.725C117.737 19.8917 118.354 20.0833 119.137 20.3C120.12 20.5667 120.92 20.8333 121.537 21.1C122.154 21.35 122.679 21.7333 123.112 22.25C123.562 22.7667 123.795 23.4417 123.812 24.275C123.812 25.025 123.604 25.7 123.187 26.3C122.77 26.9 122.179 27.375 121.412 27.725C120.662 28.0583 119.795 28.225 118.812 28.225ZM129.799 16.175V24.25C129.799 24.9167 129.94 25.3917 130.224 25.675C130.507 25.9417 130.999 26.075 131.699 26.075H133.374V28H131.324C130.057 28 129.107 27.7083 128.474 27.125C127.84 26.5417 127.524 25.5833 127.524 24.25V16.175H125.749V14.3H127.524V10.85H129.799V14.3H133.374V16.175H129.799Z" fill="#1C1C1C"/>
<defs>
<filter id="filter0_d_46_190" x="0" y="36" width="523" height="437" filterUnits="userSpaceOnUse" color-interpolation-filters="sRGB">
<feFlood flood-opacity="0" result="BackgroundImageFix"/>
<feColorMatrix in="SourceAlpha" type="matrix" values="0 0 0 0 0 0 0 0 0 0 0 0 0 0 0 0 0 0 127 0" result="hardAlpha"/>
<feOffset dy="4"/>
<feGaussianBlur stdDeviation="4"/>
<feColorMatrix type="matrix" values="0 0 0 0 0 0 0 0 0 0 0 0 0 0 0 0 0 0 0.1 0"/>
<feBlend mode="normal" in2="BackgroundImageFix" result="effect1_dropShadow_46_190"/>
<feBlend mode="normal" in="SourceGraphic" in2="effect1_dropShadow_46_190" result="shape"/>
</filter>
</defs>
</svg>
